<svg xmlns="http://www.w3.org/2000/svg" width="4" height="8" viewBox="0 0 4 8" fill="none">
  <path d="M0.331604 -0.000387192C0.375473 -0.000640869 0.418961 0.0077672 0.459573 0.0243554C0.500185 0.0409436 0.537124 0.0653858 0.568271 0.0962796L3.2916 2.81961C3.44681 2.97443 3.56996 3.15835 3.65398 3.36083C3.738 3.56332 3.78125 3.78039 3.78125 3.99961C3.78125 4.21884 3.738 4.43591 3.65398 4.63839C3.56996 4.84088 3.44681 5.02479 3.2916 5.17961L0.568271 7.90295C0.537191 7.93403 0.500294 7.95868 0.459687 7.9755C0.41908 7.99232 0.375557 8.00098 0.331604 8.00098C0.287651 8.00098 0.244128 7.99232 0.203521 7.9755C0.162914 7.95868 0.126017 7.93403 0.0949376 7.90295C0.063858 7.87187 0.0392041 7.83497 0.0223839 7.79436C0.00556374 7.75376 -0.00309324 7.71023 -0.00309324 7.66628C-0.00309324 7.62233 0.00556374 7.5788 0.0223839 7.5382C0.0392041 7.49759 0.063858 7.46069 0.0949376 7.42961L2.81827 4.70628C3.00554 4.51878 3.11072 4.26461 3.11072 3.99961C3.11072 3.73461 3.00554 3.48045 2.81827 3.29295L0.0949376 0.569613C0.0636947 0.538625 0.0388961 0.501758 0.0219731 0.461138C0.00505018 0.420518 -0.00366211 0.37695 -0.00366211 0.332946C-0.00366211 0.288942 0.00505018 0.245373 0.0219731 0.204754C0.0388961 0.164134 0.0636947 0.127267 0.0949376 0.0962796C0.126084 0.0653858 0.163022 0.0409436 0.203635 0.0243554C0.244247 0.0077672 0.287735 -0.000640869 0.331604 -0.000387192Z" fill="white"/>
</svg>