<svg xmlns="http://www.w3.org/2000/svg" width="12" height="12" viewBox="0 0 12 12" fill="none">
  <g clip-path="url(#clip0_31385_1979)">
    <path d="M6.64622 5.99992L10.8872 0.816424C11.0622 0.602924 11.0302 0.287924 10.8162 0.112924C10.6022 -0.0610763 10.2877 -0.0305763 10.1127 0.183924L6.00022 5.21042L1.88722 0.183424C1.71172 -0.0310763 1.39722 -0.0615763 1.18372 0.112424C0.969716 0.287924 0.938216 0.602424 1.11272 0.815924L5.35422 5.99992L1.11322 11.1834C0.938216 11.3969 0.970216 11.7119 1.18422 11.8869C1.39672 12.0609 1.71222 12.0309 1.88772 11.8159L6.00022 6.78942L10.1132 11.8159C10.2887 12.0309 10.6042 12.0604 10.8167 11.8869C11.0307 11.7114 11.0622 11.3969 10.8877 11.1834L6.64622 5.99992Z" fill="white"/>
  </g>
  <defs>
    <clipPath id="clip0_31385_1979">
      <rect width="12" height="12" fill="white"/>
    </clipPath>
  </defs>
</svg>